<svg width="109" height="100" viewBox="0 0 109 100" fill="none" xmlns="http://www.w3.org/2000/svg">
<path d="M55.0409 84.7411L54.4959 85.2861L53.8965 84.7411C28.0109 61.2534 10.8992 45.7221 10.8992 29.9728C10.8992 19.0736 19.0736 10.8992 29.9728 10.8992C38.3651 10.8992 46.5395 16.3488 49.4278 23.7602H59.564C62.4523 16.3488 70.6267 10.8992 79.0191 10.8992C89.9183 10.8992 98.0926 19.0736 98.0926 29.9728C98.0926 45.7221 80.9809 61.2534 55.0409 84.7411ZM79.0191 0C69.5368 0 60.436 4.41417 54.4959 11.3351C48.5559 4.41417 39.455 0 29.9728 0C13.188 0 0 13.1335 0 29.9728C0 50.5177 18.5286 67.357 46.594 92.8065L54.4959 100L62.3978 92.8065C90.4632 67.357 108.992 50.5177 108.992 29.9728C108.992 13.1335 95.8038 0 79.0191 0Z" fill="currentColor"/>
</svg>
