<svg width="19" height="20" viewBox="0 0 19 20" fill="none" xmlns="http://www.w3.org/2000/svg">
<path d="M18 0C18.2652 0 18.5196 0.105356 18.7071 0.292892C18.8946 0.480429 19 0.734784 19 1L19 19C19 19.2652 18.8946 19.5196 18.7071 19.7071C18.5196 19.8946 18.2652 20 18 20L4 20C3.73478 20 3.48043 19.8946 3.29289 19.7071C3.10536 19.5196 3 19.2652 3 19V16H5V18H17L17 2H5V4L3 4V1C3 0.734784 3.10536 0.480429 3.29289 0.292892C3.48043 0.105356 3.73478 0 4 0L18 0ZM5 6V9L12 9L12 11L5 11L5 14L0 10L5 6Z" fill="currentColor"/>
</svg>
