<svg width="101" height="110" viewBox="0 0 101 110" fill="none" xmlns="http://www.w3.org/2000/svg">
<path d="M69.7498 47.3077V24.2308C69.7498 19.1305 67.7237 14.239 64.1172 10.6326C60.5107 7.02609 55.6193 5 50.519 5C45.4187 5 40.5273 7.02609 36.9208 10.6326C33.3143 14.239 31.2882 19.1305 31.2882 24.2308V47.3077M89.5241 37.0872L96.0011 98.6256C96.36 102.036 93.6934 105 90.2626 105H10.7754C9.96622 105.001 9.1659 104.832 8.42643 104.503C7.68696 104.174 7.02489 103.694 6.48323 103.093C5.94156 102.492 5.53241 101.783 5.28236 101.014C5.03231 100.244 4.94695 99.4304 5.03182 98.6256L11.5139 37.0872C11.6634 35.6695 12.3325 34.3574 13.3921 33.4039C14.4517 32.4503 15.8268 31.9228 17.2523 31.9231H83.7857C86.7395 31.9231 89.2165 34.1538 89.5241 37.0872ZM33.2113 47.3077C33.2113 47.8177 33.0087 48.3069 32.6481 48.6675C32.2874 49.0282 31.7983 49.2308 31.2882 49.2308C30.7782 49.2308 30.2891 49.0282 29.9284 48.6675C29.5678 48.3069 29.3652 47.8177 29.3652 47.3077C29.3652 46.7977 29.5678 46.3085 29.9284 45.9479C30.2891 45.5872 30.7782 45.3846 31.2882 45.3846C31.7983 45.3846 32.2874 45.5872 32.6481 45.9479C33.0087 46.3085 33.2113 46.7977 33.2113 47.3077ZM71.6729 47.3077C71.6729 47.8177 71.4702 48.3069 71.1096 48.6675C70.749 49.0282 70.2598 49.2308 69.7498 49.2308C69.2397 49.2308 68.7506 49.0282 68.39 48.6675C68.0293 48.3069 67.8267 47.8177 67.8267 47.3077C67.8267 46.7977 68.0293 46.3085 68.39 45.9479C68.7506 45.5872 69.2397 45.3846 69.7498 45.3846C70.2598 45.3846 70.749 45.5872 71.1096 45.9479C71.4702 46.3085 71.6729 46.7977 71.6729 47.3077Z" stroke="currentColor" stroke-width="8.5" stroke-linecap="round" stroke-linejoin="round"/>
</svg>
